<?xml version="1.0" standalone="no"?>
<!DOCTYPE svg PUBLIC "-//W3C//DTD SVG 20010904//EN"
 "http://www.w3.org/TR/2001/REC-SVG-20010904/DTD/svg10.dtd">
<svg version="1.0" xmlns="http://www.w3.org/2000/svg"
 width="429.000000pt" height="503.000000pt" viewBox="0 0 429.000000 503.000000"
 preserveAspectRatio="xMidYMid meet">

<g transform="translate(0.000000,503.000000) scale(0.100000,-0.100000)"
fill="#000000" stroke="none">
<path d="M1889 4535 c-682 -111 -1237 -651 -1349 -1310 -19 -112 -21 -155 -17
-310 7 -277 47 -445 158 -670 241 -490 730 -832 1278 -895 145 -17 388 -8 516
20 314 67 591 216 811 434 140 140 227 257 308 416 199 389 228 848 79 1265
-26 74 -118 261 -159 327 l-25 39 50 55 c125 136 116 340 -19 475 -86 86 -198
124 -340 116 -98 -5 -173 -30 -251 -84 l-51 -35 -77 35 c-109 50 -207 83 -319
108 -127 27 -462 36 -593 14z m217 -512 l-7 -458 -84 -5 -85 -5 0 31 c0 23 5
33 20 37 15 4 20 14 20 41 l0 36 -130 0 c-80 0 -130 4 -130 10 0 6 13 10 30
10 l29 0 3 97 3 96 79 27 c44 14 81 31 83 36 2 5 -102 44 -231 87 l-234 77
-224 -77 c-122 -42 -227 -80 -232 -84 -5 -5 2 -13 17 -18 25 -10 27 -15 27
-69 0 -32 -5 -63 -10 -68 -6 -6 -12 -31 -13 -55 -2 -42 0 -44 27 -47 47 -6 51
8 31 102 -23 111 -20 120 39 100 l45 -16 3 -91 3 -92 35 -5 c33 -5 31 -6 -20
-13 -30 -4 -112 -7 -181 -7 -144 0 -166 -9 -200 -84 -30 -66 -20 -140 26 -195
l25 -29 -34 -20 c-95 -56 -100 -223 -10 -302 l35 -30 182 -2 c100 -2 219 -2
265 0 48 1 82 -2 82 -8 0 -5 -8 -26 -17 -46 -17 -36 -18 -36 -65 -30 -27 4
-55 9 -63 12 -9 4 -15 0 -15 -9 0 -15 53 -37 88 -37 18 0 15 -18 -5 -27 -18
-8 -233 -10 -565 -5 l-167 2 5 103 c13 239 63 435 157 624 171 340 464 612
808 751 180 73 337 109 482 111 l79 1 -6 -457z m316 437 c153 -26 342 -90 396
-133 10 -8 10 -14 -1 -31 -8 -12 -19 -38 -26 -58 -15 -45 -23 -259 -11 -279 7
-10 -6 -29 -48 -71 -31 -32 -62 -58 -69 -58 -10 0 -13 23 -13 89 l0 89 36 12
c42 14 74 60 74 108 0 96 -96 152 -177 102 -40 -24 -56 -53 -56 -102 0 -48 25
-86 70 -105 l36 -14 -5 -75 c-3 -41 -8 -77 -11 -80 -3 -4 -49 36 -102 87 l-95
94 21 42 c18 37 19 47 9 77 -17 53 -62 86 -117 86 -38 0 -50 -5 -79 -34 -28
-28 -34 -42 -34 -75 0 -52 21 -94 55 -109 32 -15 101 -16 110 -2 11 18 22 10
66 -47 24 -32 67 -86 96 -121 54 -64 63 -82 41 -82 -7 0 -39 -16 -71 -36 -34
-21 -62 -33 -67 -28 -5 5 -2 28 7 54 14 41 14 48 0 82 -19 45 -59 73 -107 73
-101 0 -154 -123 -87 -201 26 -30 100 -44 136 -25 12 7 26 9 32 5 7 -4 -17
-34 -60 -76 l-71 -69 -59 7 -59 6 -4 62 c-4 60 -4 318 0 674 l2 182 64 0 c35
0 115 -9 178 -20z m961 -23 c75 -34 159 -114 188 -180 53 -118 18 -271 -82
-361 -88 -80 -187 -111 -324 -104 -235 12 -402 207 -350 409 32 125 110 202
255 251 82 27 234 20 313 -15z m-675 -244 c31 -34 30 -96 -3 -128 -56 -56
-155 -18 -155 60 0 48 15 74 53 90 40 17 76 10 105 -22z m-307 -2 c62 -62 20
-163 -67 -163 -51 0 -94 45 -94 98 0 50 45 94 95 94 27 0 44 -8 66 -29z m-676
-166 c61 -20 116 -41 124 -45 10 -5 -25 -21 -100 -45 -63 -20 -150 -50 -195
-67 l-80 -30 -180 62 c-98 34 -185 65 -192 69 -9 5 10 15 50 29 35 11 121 41
192 65 l128 45 72 -23 c39 -12 121 -39 181 -60z m1093 -57 c12 -21 18 -38 14
-38 -10 0 -42 54 -42 71 0 15 1 14 28 -33z m28 -67 c21 -11 50 -31 63 -45 l24
-26 -24 0 c-40 0 -68 -27 -75 -71 -5 -31 -11 -39 -27 -39 -12 0 -36 -14 -54
-32 -22 -22 -33 -27 -33 -17 0 9 -11 37 -24 64 l-25 48 62 68 c33 38 64 69 67
69 4 0 24 -9 46 -19z m-1483 -58 l108 -35 128 41 c70 22 131 41 134 41 4 0 7
-31 7 -69 0 -69 0 -69 -30 -76 -19 -4 -52 1 -95 16 -63 21 -68 21 -101 6 -20
-10 -41 -31 -50 -51 l-16 -33 -96 28 c-52 16 -106 29 -119 29 -22 0 -23 3 -23
76 0 73 1 75 23 69 12 -4 71 -23 130 -42z m1049 20 c40 -38 39 -93 -2 -135
-27 -26 -36 -30 -67 -25 -54 9 -83 42 -83 94 0 87 90 126 152 66z m1072 -143
c97 -167 169 -365 197 -535 19 -118 16 -379 -5 -500 -22 -124 -83 -312 -137
-419 -60 -119 -159 -264 -243 -353 l-74 -78 -6 180 c-3 99 -8 207 -10 240 l-4
60 93 100 c90 96 94 99 119 87 15 -7 45 -12 67 -12 70 0 131 79 115 146 -9 34
-56 81 -91 90 -45 11 -101 -12 -125 -52 -21 -34 -22 -50 -8 -128 2 -14 -19
-36 -77 -82 -44 -35 -83 -63 -87 -64 -5 0 -8 64 -8 142 l0 141 79 81 c43 45
92 97 109 116 27 32 32 33 56 22 15 -7 45 -12 67 -12 33 0 48 7 75 34 45 45
48 108 8 155 -86 103 -251 8 -199 -115 8 -21 12 -40 8 -44 -143 -119 -194
-160 -203 -160 -6 0 -10 39 -10 103 0 56 -3 125 -6 152 l-6 50 68 80 c50 59
73 79 88 77 100 -15 102 -15 139 18 57 50 61 110 11 169 -49 59 -142 48 -184
-22 -23 -38 -25 -72 -6 -109 14 -27 13 -28 -46 -83 -33 -31 -61 -55 -63 -53
-1 2 -5 66 -9 144 l-6 140 34 17 c52 24 69 57 64 118 -6 63 -38 98 -95 106
-137 18 -188 -182 -57 -229 l37 -13 -8 -170 c-4 -93 -9 -172 -11 -174 -5 -6
-94 89 -94 100 0 4 7 20 15 35 45 87 -21 184 -118 171 -48 -7 -84 -39 -98 -88
-24 -79 60 -165 138 -141 20 6 39 9 43 7 4 -2 30 -38 59 -79 l52 -75 -3 -123
-3 -122 -76 67 -77 66 16 44 c19 52 11 90 -27 128 -39 39 -90 46 -141 21 l-40
-19 -23 76 c-22 70 -24 89 -19 233 l4 158 26 -20 c17 -14 40 -20 74 -20 43 0
54 4 84 34 30 30 34 40 34 85 0 28 5 51 10 51 6 0 18 15 27 34 12 27 13 40 5
64 l-10 31 41 -17 c66 -25 266 -23 337 4 30 12 58 19 62 17 3 -2 27 -39 52
-83z m-2400 64 c11 -29 6 -44 -14 -44 -22 0 -23 3 -14 38 7 26 19 29 28 6z
m1882 -10 c37 -55 -25 -117 -80 -80 -49 31 -24 106 35 106 20 0 34 -8 45 -26z
m-289 -98 c14 -41 17 -92 18 -271 0 -121 4 -229 8 -241 6 -17 0 -22 -45 -39
-29 -10 -59 -20 -65 -23 -7 -2 -13 3 -13 12 0 9 -13 30 -29 48 l-29 33 -145 0
c-163 0 -171 -3 -188 -69 l-10 -41 -85 0 -84 0 0 27 c0 15 -11 40 -24 55 -24
28 -26 28 -154 31 -148 4 -180 -5 -209 -62 l-18 -34 -60 19 -60 18 -3 203 c-4
282 14 388 67 388 37 0 142 -65 218 -134 61 -56 63 -59 47 -77 -26 -29 0 -33
102 -13 112 21 267 21 374 -1 89 -18 120 -11 78 19 l-23 17 26 22 c15 12 51
43 80 68 86 73 164 113 196 101 7 -2 21 -27 30 -56z m180 4 c14 -11 33 -20 42
-20 43 0 55 -61 20 -101 l-20 -24 6 22 c9 33 -15 93 -37 93 -38 0 -87 -28 -94
-54 -3 -14 -3 -30 1 -35 3 -6 2 -11 -3 -11 -16 0 -32 49 -25 80 6 32 45 70 70
70 8 0 26 -9 40 -20z m-1491 -15 c17 -13 -6 -14 -209 -15 l-228 0 -24 -25
c-36 -35 -36 -121 -1 -162 l24 -28 251 2 c215 2 251 0 251 -12 0 -13 -38 -15
-257 -15 -237 0 -261 2 -289 19 -60 36 -70 150 -19 209 21 24 32 28 107 33 45
3 149 6 229 7 114 2 149 -1 165 -13z m579 -5 c-3 -5 -44 -10 -90 -10 -46 0
-87 5 -90 10 -4 6 28 10 90 10 62 0 94 -4 90 -10z m1280 -52 c23 -27 26 -39
22 -72 -7 -51 -36 -76 -88 -76 -57 0 -94 35 -94 90 0 55 37 90 95 90 31 0 43
-6 65 -32z m-1785 -8 c0 -19 -7 -20 -200 -20 -127 0 -200 -4 -200 -10 0 -6 74
-10 201 -10 186 0 200 -1 197 -17 -4 -22 14 -20 -235 -22 -113 0 -203 -4 -199
-8 3 -4 102 -7 219 -7 205 -1 212 -2 212 -21 0 -19 -8 -20 -246 -23 -239 -2
-246 -2 -265 19 -12 14 -19 36 -19 64 0 76 -5 75 281 75 247 0 254 -1 254 -20z
m465 -12 c-11 -50 -18 -51 -60 -8 l-39 40 53 0 53 0 -7 -32z m965 8 c6 -8 10
-25 8 -38 -6 -42 -78 -32 -78 11 0 37 46 55 70 27z m587 -191 c28 -20 46 -75
34 -106 -23 -61 -97 -86 -144 -49 -16 13 -32 33 -37 45 -12 32 6 91 33 110 28
19 86 19 114 0z m-2019 -52 c3 -10 -55 -13 -267 -13 -259 0 -272 -1 -291 -20
-57 -57 -49 -188 13 -221 13 -8 102 -10 265 -8 190 3 246 1 249 -8 5 -15 -153
-20 -387 -15 -190 5 -220 26 -220 156 0 72 21 108 74 132 43 19 557 15 564 -3z
m1562 2 c36 -19 50 -43 50 -87 0 -70 -67 -112 -133 -84 -65 27 -79 106 -28
157 33 33 67 37 111 14z m-1554 -57 c10 -34 -6 -38 -142 -38 -93 0 -134 -3
-134 -11 0 -9 34 -10 123 -5 132 8 157 4 157 -25 0 -17 -9 -19 -87 -20 -49 -1
-115 -5 -148 -9 -49 -6 -34 -7 78 -9 137 -1 138 -1 135 -23 -4 -30 -53 -39
-198 -36 l-115 3 -3 73 -3 72 -59 0 -59 0 -3 -72 c-3 -61 -6 -73 -21 -76 -61
-12 -103 40 -94 117 9 76 7 76 305 76 240 0 263 -1 268 -17z m-356 -88 c0 -38
-1 -40 -21 -29 -15 8 -24 8 -32 0 -20 -20 -27 -12 -27 29 l0 40 40 0 40 0 0
-40z m871 -71 c20 -20 21 -29 17 -111 -4 -68 -10 -96 -25 -117 -19 -25 -24
-26 -135 -29 -156 -4 -162 1 -166 130 -3 83 -1 96 18 121 21 27 22 27 146 27
113 0 126 -2 145 -21z m557 5 c20 -14 22 -23 22 -115 0 -93 -2 -102 -25 -124
-23 -24 -31 -25 -133 -25 -90 0 -114 3 -131 18 -50 40 -55 224 -8 254 7 4 66
8 132 8 93 0 126 -4 143 -16z m-1430 -11 c2 -9 -9 -13 -40 -13 -40 1 -42 2
-23 16 23 17 56 15 63 -3z m453 -53 l69 -21 0 -55 c0 -66 18 -113 55 -142 25
-20 40 -22 139 -22 156 0 192 24 203 136 3 32 11 62 17 66 13 9 118 10 140 2
11 -4 16 -19 16 -43 0 -54 17 -105 44 -130 21 -19 41 -24 126 -31 111 -9 154
-2 189 31 31 29 41 61 41 129 l0 59 70 22 c38 13 72 21 74 18 2 -2 18 -41 34
-85 l30 -82 -51 -13 c-28 -8 -49 -18 -47 -24 6 -11 26 -11 85 -1 37 7 41 6 58
-22 9 -17 17 -35 17 -40 0 -6 -31 -9 -72 -8 -59 1 -73 -2 -73 -14 0 -12 15
-16 68 -18 37 -2 67 -5 67 -8 0 -3 -10 -19 -22 -37 -13 -18 -24 -33 -25 -35
-1 -2 -10 1 -20 6 -10 5 -30 12 -45 16 -39 9 -37 -19 2 -33 17 -5 30 -13 30
-16 0 -45 -186 -177 -302 -214 -35 -12 -49 -33 -30 -45 10 -6 137 39 178 63
l33 20 51 -61 c40 -48 48 -63 39 -74 -9 -11 -15 -11 -25 -3 -7 6 -22 8 -32 5
-13 -5 -22 1 -30 19 -15 32 -35 32 -165 -1 -133 -33 -268 -98 -329 -159 l-48
-47 -57 52 c-76 68 -177 115 -321 151 -140 34 -162 36 -169 10 -3 -11 -15 -21
-27 -23 -11 -2 -25 -13 -31 -25 -7 -16 -18 -23 -37 -23 l-28 0 0 -105 c0 -58
-3 -105 -6 -105 -3 0 -19 10 -36 21 -22 16 -33 18 -41 10 -21 -21 32 -59 120
-88 132 -43 186 -103 92 -103 -27 0 -39 -4 -39 -15 0 -10 15 -15 58 -17 51 -3
57 -5 60 -27 5 -31 -12 -41 -70 -41 -34 0 -48 -4 -48 -14 0 -19 22 -26 64 -19
41 7 46 -5 14 -34 -39 -35 -69 -46 -132 -46 -197 0 -289 178 -195 378 52 111
249 375 279 375 9 0 24 -6 35 -13 33 -22 155 -59 172 -52 25 9 0 28 -75 55
-35 13 -90 40 -123 61 -62 40 -149 116 -149 129 0 5 13 11 30 15 34 7 47 22
32 37 -6 6 -21 4 -43 -8 l-33 -17 -34 39 -34 39 64 3 c83 3 94 7 77 28 -11 13
-25 15 -71 10 -66 -8 -73 1 -35 47 20 25 25 27 50 18 16 -6 42 -11 58 -11 46
0 31 22 -25 38 -26 7 -46 17 -44 21 2 3 16 41 32 84 16 42 31 77 34 77 3 0 36
-9 73 -20z m2026 -4 c23 -20 28 -32 28 -69 0 -54 -23 -84 -72 -93 -39 -7 -89
11 -103 37 -6 10 -10 34 -10 54 0 81 95 124 157 71z m-626 -25 c30 -31 42 -88
16 -78 -7 3 -33 1 -56 -3 -33 -6 -44 -4 -48 6 -8 22 16 44 49 44 26 0 29 2 18
15 -13 16 -48 20 -66 7 -5 -4 -18 -18 -27 -31 l-16 -24 -7 28 c-16 64 83 89
137 36z m6 -126 c-27 -24 -66 -33 -81 -18 -3 4 13 15 36 24 63 25 78 23 45 -6z
m97 -135 l80 -94 -3 -170 c-1 -94 -5 -173 -7 -175 -2 -2 -26 14 -52 36 -27 23
-77 60 -112 82 -76 50 -99 48 -148 -7 l-34 -37 -30 35 c-66 77 -66 71 2 136
34 33 68 60 75 62 7 2 32 -6 54 -17 22 -12 48 -21 56 -21 31 0 9 25 -42 49
l-51 24 31 48 c30 45 35 49 75 49 31 0 42 4 42 15 0 10 -11 15 -35 15 -25 0
-37 6 -45 21 -7 11 -10 22 -8 24 8 9 54 23 63 21 5 -1 46 -45 89 -96z m-1838
5 c9 -9 25 -12 43 -9 28 6 26 8 78 -73 14 -20 12 -23 -30 -41 -48 -22 -64 -39
-50 -53 6 -6 30 0 65 16 l56 25 64 -64 65 -64 -70 -89 c-202 -255 -276 -432
-233 -560 20 -61 73 -124 121 -147 33 -16 36 -20 30 -49 -4 -18 -10 -35 -14
-40 -10 -10 -117 66 -228 164 -272 240 -461 594 -499 937 l-7 62 297 0 c248 0
300 -2 312 -15z m2331 -110 c34 -22 48 -77 28 -114 -43 -85 -164 -74 -181 16
-17 92 72 150 153 98z m-627 -222 c44 -26 57 -56 36 -88 l-17 -26 -47 38 c-26
20 -51 40 -55 44 -10 8 27 49 44 49 6 0 24 -8 39 -17z m145 -116 l58 -69 -3
-211 c-1 -117 -5 -241 -8 -277 l-7 -65 -70 -48 c-70 -48 -164 -101 -170 -95
-2 2 -7 31 -12 66 l-10 63 36 19 c125 63 169 213 108 372 -14 37 -37 84 -51
105 -14 21 -26 41 -26 46 0 4 18 32 41 62 23 30 42 66 43 80 0 14 4 24 7 22 3
-1 32 -33 64 -70z m-196 22 c28 -22 51 -45 51 -49 0 -21 -19 -16 -60 17 -25
19 -51 38 -59 43 -14 7 -7 30 8 30 5 0 31 -18 60 -41z m-1189 6 c126 -30 222
-67 295 -117 76 -50 140 -118 99 -105 -46 14 -299 91 -409 123 -119 35 -145
47 -132 60 11 11 133 -14 227 -46 47 -15 87 -26 90 -23 11 11 -37 32 -143 63
-61 18 -114 34 -116 36 -5 4 9 24 17 24 4 0 36 -7 72 -15z m943 0 c0 -5 -21
-16 -45 -23 -23 -8 -72 -23 -108 -34 -64 -19 -116 -45 -108 -54 3 -2 43 9 89
25 103 35 218 56 232 42 6 -6 -30 -22 -104 -44 -63 -19 -188 -58 -278 -86 -91
-28 -167 -49 -169 -46 -2 2 15 24 39 50 54 58 190 127 319 160 97 25 136 28
133 10z m162 -25 c4 -6 -11 -32 -32 -58 -22 -26 -69 -90 -106 -142 -78 -111
-190 -267 -199 -276 -4 -3 -11 -3 -17 0 -6 4 26 57 75 124 46 64 123 172 171
240 48 67 91 122 95 122 4 0 10 -5 13 -10z m45 -69 c-11 -14 -45 -62 -77 -106
-51 -69 -105 -116 -119 -102 -2 2 32 55 77 118 44 63 85 122 91 132 9 18 11
18 29 2 18 -17 18 -18 -1 -44z m-1155 -47 c88 -25 195 -55 238 -66 l77 -20 0
-319 0 -319 -27 11 c-31 11 -367 103 -428 116 -33 7 -41 13 -43 36 -3 21 1 27
15 27 10 0 41 11 69 24 106 49 141 150 91 260 -24 52 -31 59 -89 85 -35 16
-71 31 -80 35 -15 5 -18 19 -18 96 0 82 2 91 18 86 9 -3 89 -26 177 -52z
m1205 35 c0 -15 -108 -156 -124 -162 -9 -4 -16 -4 -16 -2 0 3 28 45 62 94 54
80 78 101 78 70z m-301 -110 c-71 -98 -96 -132 -167 -233 -25 -35 -36 -66 -47
-128 -15 -84 -19 -148 -10 -148 11 0 200 103 206 113 4 6 16 1 30 -12 13 -12
50 -30 81 -39 49 -14 58 -21 58 -40 0 -12 -6 -24 -12 -26 -7 -3 -58 -16 -113
-31 -55 -15 -161 -44 -235 -65 -74 -22 -137 -37 -140 -34 -3 3 -6 144 -7 314
l-2 308 27 11 c15 6 68 22 117 36 50 13 133 38 185 54 52 16 97 27 99 25 2 -2
-30 -49 -70 -105z m368 -69 c45 -108 24 -234 -48 -295 -48 -39 -127 -58 -194
-46 -58 11 -115 43 -115 65 0 8 14 12 43 12 31 -1 42 3 42 14 0 10 -12 16 -35
18 -73 5 -81 10 -78 44 3 30 5 31 53 32 62 1 71 18 16 29 -23 5 -41 12 -41 16
0 19 44 45 131 77 51 19 108 46 128 61 34 26 34 27 12 33 l-23 5 22 28 22 28
21 -33 c11 -18 31 -58 44 -88z m-762 -284 c-2 -249 -5 -310 -16 -317 -19 -12
-96 -11 -120 1 -18 10 -19 24 -19 318 l0 307 79 0 78 0 -2 -309z m345 81 c0
-22 -7 -36 -21 -45 -36 -23 -46 1 -18 43 30 43 39 44 39 2z m-88 -55 c2 -4 18
-18 36 -31 17 -12 32 -27 32 -32 0 -14 -87 -49 -105 -43 -28 11 -14 114 15
114 10 0 20 -4 22 -8z m99 -25 c-1 -12 -15 -9 -19 4 -3 6 1 10 8 8 6 -3 11 -8
11 -12z m-1091 -141 c0 -18 6 -38 13 -44 6 -5 53 -20 102 -32 185 -45 441
-120 480 -140 48 -25 78 -25 131 -1 37 17 118 40 474 139 52 14 101 30 108 35
6 5 12 25 12 43 0 24 5 34 15 34 19 0 22 -8 29 -83 l6 -58 -62 -28 c-159 -72
-335 -111 -538 -118 -288 -10 -488 32 -757 159 l-63 29 0 50 c0 46 2 49 25 49
22 0 25 -4 25 -34z"/>
<path d="M3190 4395 c0 -34 12 -46 25 -24 9 14 -3 59 -15 59 -6 0 -10 -16 -10
-35z"/>
<path d="M3352 4357 c-22 -23 -29 -47 -14 -47 18 0 56 50 46 60 -7 7 -18 3
-32 -13z"/>
<path d="M3020 4361 c0 -19 37 -54 49 -47 9 6 7 14 -10 32 -23 25 -39 31 -39
15z"/>
<path d="M3167 4319 c-53 -9 -88 -37 -116 -93 -22 -44 -23 -52 -12 -99 6 -29
25 -70 41 -91 26 -34 30 -48 30 -103 l0 -63 42 -20 c54 -26 62 -25 104 6 31
24 34 31 34 76 0 39 7 62 34 106 42 70 51 108 36 162 -23 86 -102 135 -193
119z m90 -36 c48 -23 73 -66 73 -129 0 -43 -7 -61 -42 -115 -48 -73 -59 -64
-33 26 9 31 13 59 11 64 -6 10 -122 8 -132 -2 -4 -3 1 -34 10 -67 9 -33 14
-65 11 -71 -8 -13 -83 111 -91 150 -9 43 13 98 49 125 51 39 92 44 144 19z
m-81 -178 c12 -11 20 -12 36 -4 29 15 31 7 14 -45 -9 -26 -16 -53 -16 -61 0
-36 -20 -10 -30 40 -6 30 -16 57 -21 60 -10 7 -13 25 -3 25 3 0 12 -7 20 -15z
m74 -165 c0 -5 -25 -10 -55 -10 -30 0 -55 5 -55 10 0 6 25 10 55 10 30 0 55
-4 55 -10z m-2 -48 c2 -8 -14 -12 -52 -12 -65 0 -76 17 -13 23 54 4 60 3 65
-11z"/>
<path d="M2942 4182 c-25 -8 -10 -22 24 -22 23 0 34 4 32 12 -4 12 -35 17 -56
10z"/>
<path d="M3407 4183 c-15 -15 -5 -23 28 -23 36 0 47 13 19 24 -20 8 -39 8 -47
-1z"/>
<path d="M2611 4176 c-7 -8 -11 -34 -9 -58 3 -39 6 -43 31 -46 39 -5 57 14 57
59 0 28 -5 41 -19 49 -27 14 -46 13 -60 -4z m49 -26 c0 -5 -7 -10 -15 -10 -8
0 -15 5 -15 10 0 6 7 10 15 10 8 0 15 -4 15 -10z m-5 -40 c3 -5 -1 -10 -10
-10 -9 0 -13 5 -10 10 3 6 8 10 10 10 2 0 7 -4 10 -10z"/>
<path d="M2323 4168 c-17 -21 -37 -87 -30 -94 4 -4 16 1 27 11 16 15 22 16 35
5 23 -19 29 -6 15 34 -14 43 -33 61 -47 44z m22 -37 c3 -5 1 -12 -5 -16 -5 -3
-10 1 -10 9 0 18 6 21 15 7z"/>
<path d="M2326 3828 c-26 -64 -28 -78 -12 -78 9 0 16 5 16 10 0 15 26 12 40
-5 16 -19 30 -19 30 -1 0 22 -40 106 -51 106 -6 0 -16 -15 -23 -32z m34 -28
c0 -5 -4 -10 -10 -10 -5 0 -10 5 -10 10 0 6 5 10 10 10 6 0 10 -4 10 -10z"/>
<path d="M1566 3652 c-3 -5 15 -25 39 -46 24 -20 58 -56 74 -80 l30 -43 -50
-41 c-48 -39 -109 -107 -109 -122 0 -22 19 -15 61 25 26 24 72 60 103 80 31
20 56 38 56 41 0 29 -82 127 -138 164 -48 32 -58 35 -66 22z"/>
<path d="M2544 3631 c-61 -45 -134 -130 -134 -156 0 -5 21 -23 46 -39 26 -16
73 -54 106 -84 32 -30 61 -52 65 -49 15 16 -26 73 -88 125 -38 31 -69 59 -69
63 0 9 89 110 112 127 19 14 25 42 10 42 -5 0 -27 -13 -48 -29z"/>
<path d="M3122 3559 c-12 -29 -19 -55 -16 -60 7 -12 34 1 34 17 0 19 26 18 34
-1 8 -22 26 -18 26 5 0 32 -27 90 -43 90 -7 0 -23 -23 -35 -51z m48 1 c0 -5
-4 -10 -10 -10 -5 0 -10 5 -10 10 0 6 5 10 10 10 6 0 10 -4 10 -10z"/>
<path d="M3370 3365 c-18 -22 -15 -66 6 -82 24 -17 58 -13 62 8 2 12 -4 15
-28 11 -30 -4 -31 -3 -28 24 3 25 7 29 31 27 18 -1 27 3 27 13 0 19 -54 19
-70 -1z"/>
<path d="M2920 3270 c0 -46 2 -50 24 -50 36 0 57 26 50 58 -10 40 -12 42 -45
42 -28 0 -29 -1 -29 -50z m50 20 c0 -5 -7 -10 -15 -10 -8 0 -15 5 -15 10 0 6
7 10 15 10 8 0 15 -4 15 -10z m0 -40 c0 -5 -7 -10 -15 -10 -8 0 -15 5 -15 10
0 6 7 10 15 10 8 0 15 -4 15 -10z"/>
<path d="M1806 3078 c-22 -31 -21 -110 2 -138 45 -55 116 24 93 101 -18 59
-67 78 -95 37z"/>
<path d="M2324 3092 c-56 -37 -41 -172 20 -172 58 0 82 108 36 158 -22 23 -37
27 -56 14z"/>
<path d="M2053 2903 c-18 -7 -16 -48 3 -63 8 -8 14 -25 12 -39 -4 -36 -45 -42
-69 -9 -16 21 -18 21 -25 5 -15 -41 71 -78 104 -45 10 10 17 10 32 0 42 -26
110 -3 110 36 0 17 -8 15 -37 -7 -27 -22 -48 -18 -64 11 -9 16 -6 25 15 47 14
15 26 32 26 39 0 24 -69 41 -107 25z"/>
<path d="M3467 3053 c-12 -11 -8 -78 5 -91 22 -22 78 -8 78 20 0 4 -13 5 -30
2 -27 -6 -30 -4 -30 20 0 22 4 27 23 26 36 -3 40 -1 27 15 -13 15 -61 21 -73
8z"/>
<path d="M3440 2610 c0 -38 4 -52 17 -57 21 -8 67 18 71 40 6 31 -25 67 -58
67 -29 0 -30 -1 -30 -50z m60 11 c7 -15 6 -23 -6 -35 -19 -20 -34 -12 -34 18
0 39 23 49 40 17z"/>
<path d="M1390 1070 c-25 -25 -26 -52 -2 -73 37 -34 102 -12 102 34 0 25 -35
59 -60 59 -11 0 -29 -9 -40 -20z"/>
<path d="M3462 1068 c-7 -7 -12 -44 -12 -95 0 -46 -2 -83 -4 -83 -3 0 -21 9
-40 21 -67 40 -162 21 -205 -39 -66 -93 -47 -230 42 -296 42 -31 136 -30 170
2 l25 24 11 -21 c14 -26 52 -36 80 -21 20 10 21 17 21 249 0 218 -2 239 -18
254 -22 20 -53 22 -70 5z m-55 -243 c32 -23 47 -77 33 -120 -18 -55 -71 -79
-125 -59 -24 10 -45 58 -45 104 0 74 77 117 137 75z"/>
<path d="M460 1044 c-45 -20 -96 -69 -123 -119 -34 -63 -30 -173 7 -243 34
-61 77 -97 146 -120 34 -12 56 -27 72 -51 63 -92 254 -116 274 -34 11 41 -11
54 -80 47 -51 -5 -65 -3 -85 13 l-23 19 48 25 c87 44 142 154 129 254 -13 101
-79 188 -164 213 -53 16 -159 14 -201 -4z m194 -107 c54 -38 73 -142 40 -213
-30 -63 -116 -90 -189 -60 -86 36 -108 174 -40 255 43 51 130 59 189 18z"/>
<path d="M2057 1046 c-67 -24 -97 -66 -97 -135 0 -83 37 -118 155 -147 88 -21
115 -37 115 -69 0 -51 -91 -61 -178 -20 -67 31 -78 31 -98 0 -15 -23 -15 -27
0 -50 9 -14 35 -35 59 -47 58 -32 205 -33 256 -3 53 31 75 68 75 124 0 85 -34
118 -163 155 -92 27 -113 40 -109 70 7 45 89 57 159 22 44 -22 76 -20 90 5 41
77 -136 140 -264 95z"/>
<path d="M2472 1018 c-7 -7 -12 -28 -12 -48 0 -31 -4 -37 -31 -47 -26 -10 -30
-16 -27 -44 2 -26 9 -35 28 -39 24 -6 25 -8 30 -115 5 -117 15 -145 57 -164
51 -23 127 -7 138 29 9 27 -21 63 -46 55 -36 -12 -50 21 -47 109 l3 81 37 3
c45 4 65 30 48 62 -10 19 -19 22 -65 24 -16 1 -21 9 -23 41 -2 22 -8 45 -14
52 -13 16 -60 17 -76 1z"/>
<path d="M930 920 c-24 -15 -21 -263 3 -307 35 -65 125 -83 190 -39 l36 25 16
-25 c18 -28 56 -32 79 -8 13 13 16 43 16 174 0 172 -5 190 -55 190 -46 0 -55
-22 -55 -139 0 -99 -2 -109 -23 -129 -31 -29 -81 -29 -101 0 -12 17 -16 49
-16 135 0 101 -2 113 -19 123 -24 12 -51 13 -71 0z"/>
<path d="M1386 908 c-17 -24 -21 -145 -9 -271 5 -59 9 -70 30 -80 16 -7 30 -7
48 1 l25 12 0 168 c0 117 -4 172 -12 180 -20 20 -65 14 -82 -10z"/>
<path d="M1593 920 c-25 -10 -31 -48 -11 -68 7 -7 39 -12 75 -12 35 0 63 -4
63 -10 0 -9 -50 -73 -127 -164 -45 -54 -44 -95 5 -110 12 -4 79 -4 148 0 120
6 126 8 137 31 19 41 -9 57 -98 55 -48 -2 -75 1 -75 8 0 6 27 43 60 81 114
132 128 169 73 190 -31 11 -221 11 -250 -1z"/>
<path d="M2734 905 c-23 -35 -16 -245 9 -292 33 -63 117 -81 187 -42 l38 21
21 -21 c23 -23 43 -26 72 -11 18 10 19 23 19 178 0 181 -3 192 -51 192 -47 0
-59 -31 -59 -145 0 -93 -2 -103 -23 -123 -29 -27 -71 -28 -97 -2 -18 18 -20
33 -20 129 0 86 -3 113 -16 125 -23 24 -61 20 -80 -9z"/>
<path d="M3642 918 c-21 -21 -13 -50 53 -203 36 -83 65 -156 65 -162 0 -27
-40 -54 -76 -51 -51 3 -73 -41 -37 -77 25 -26 115 -16 149 16 33 31 46 56 133
267 45 109 70 180 66 193 -7 23 -52 36 -74 22 -9 -5 -36 -60 -60 -121 -24 -62
-47 -112 -50 -112 -3 0 -23 49 -45 108 -21 59 -43 113 -48 120 -13 15 -60 16
-76 0z"/>
<path d="M1844 288 l-19 -23 23 19 c21 18 27 26 19 26 -2 0 -12 -10 -23 -22z"/>
<path d="M3198 299 c-10 -5 -18 -15 -18 -22 0 -8 3 -9 8 -1 4 6 16 16 27 22
11 6 16 11 10 11 -5 0 -18 -4 -27 -10z"/>
<path d="M1070 247 l5 -52 3 44 c2 24 0 47 -5 52 -4 4 -6 -15 -3 -44z"/>
<path d="M2355 289 c-4 -6 -5 -12 -2 -15 2 -3 7 2 10 11 7 17 1 20 -8 4z"/>
<path d="M2706 287 c3 -10 9 -15 12 -12 3 3 0 11 -7 18 -10 9 -11 8 -5 -6z"/>
<path d="M2143 245 c0 -27 2 -38 4 -22 2 15 2 37 0 50 -2 12 -4 0 -4 -28z"/>
<path d="M3438 263 c5 -21 7 -23 10 -9 2 10 0 22 -6 28 -6 6 -7 0 -4 -19z"/>
<path d="M1513 256 c-13 -6 -23 -17 -23 -24 0 -9 7 -8 25 5 13 10 25 21 25 26
0 4 -1 6 -2 6 -2 -1 -13 -6 -25 -13z"/>
<path d="M1740 259 c0 -5 5 -7 10 -4 6 3 10 8 10 11 0 2 -4 4 -10 4 -5 0 -10
-5 -10 -11z"/>
<path d="M1932 250 c0 -14 2 -19 5 -12 2 6 2 18 0 25 -3 6 -5 1 -5 -13z"/>
<path d="M2310 251 c0 -25 6 -27 13 -6 4 8 2 17 -3 20 -6 4 -10 -3 -10 -14z"/>
<path d="M1191 244 c0 -11 3 -14 6 -6 3 7 2 16 -1 19 -3 4 -6 -2 -5 -13z"/>
<path d="M2708 230 c-12 -21 -13 -27 -3 -24 11 5 28 44 22 50 -1 2 -10 -10
-19 -26z"/>
<path d="M3031 244 c0 -11 3 -14 6 -6 3 7 2 16 -1 19 -3 4 -6 -2 -5 -13z"/>
<path d="M3171 252 c-1 -20 18 -52 32 -52 9 0 9 2 0 8 -7 4 -16 19 -22 32 -5
14 -10 19 -10 12z"/>
<path d="M3490 250 c0 -18 20 -50 31 -50 6 0 3 7 -5 16 -9 8 -14 19 -11 24 3
5 1 11 -5 15 -5 3 -10 1 -10 -5z"/>
<path d="M3271 214 c0 -11 3 -14 6 -6 3 7 2 16 -1 19 -3 4 -6 -2 -5 -13z"/>
<path d="M2790 210 c0 -5 5 -10 11 -10 5 0 7 5 4 10 -3 6 -8 10 -11 10 -2 0
-4 -4 -4 -10z"/>
</g>
</svg>
